# xmcd CD database file
# Copyright (C) 1993-1996 Ti Kan
#
# Track frame offsets:
# 150
# 13677
# 26495
# 38555
# 49970
# 63257
# 77650
# 88420
# 99385
# 112282
# 124382
# 136462
# 149090
# 161482
# 175487
# 185522
# 198820
# 212030
# 225147
# 237400
#
# Disc length: 3329 seconds
#
# Revision: 0
# Processed by: cddbd v1.4b41PL1 Copyright (c) Steve Scherf et al.
# Submitted via: inCDius 1.1b5
#
DISCID=1d0cff14
DTITLE=Moe Bandy - Honky Tonk Amnesia -The Hard Country Sound Of Moe Bandy
DYEAR=1900
DGENRE=
TTITLE0=I Just Started Hatin' Cheatin' Songs Today
TTITLE1=Honky tonk Amnesia
TTITLE2=It Was Always So Easy (To Find An Unnhappy Woman)
TTITLE3=Don't Anyone Make Love At Home Anymore
TTITLE4=Bandy The Rodeo Clown
TTITLE5=Hank Williams, You Wrote My Life
TTITLE6=She Took More Than Her Share
TTITLE7=I'm Sorry For You, My Friend
TTITLE8=Soft Lights And Hard Country Music
TTITLE9=That's What Makes The Jukebox Play
TTITLE10=It's A Cheating Situation
TTITLE11=Two Lonely People
TTITLE12=Bar Stool Mountain
TTITLE13=I Cheated Me Right Out Of You
TTITLE14=One Of A Kind
TTITLE15=Yesterday Once More
TTITLE16=Following The Feeling
TTITLE17=Rodeo Romeo
TTITLE18=She's Not Really Cheatin' (She's Gettin' Even)
TTITLE19=Let's Get Over Them Together
EXTD=
EXTT0=
EXTT1=
EXTT2=
EXTT3=
EXTT4=
EXTT5=
EXTT6=
EXTT7=
EXTT8=
EXTT9=
EXTT10=With Janie Fricke
EXTT11=
EXTT12=
EXTT13=
EXTT14=
EXTT15=
EXTT16=With Judy Bailey
EXTT17=
EXTT18=
EXTT19=With Becky Hobbs
PLAYORDER=
